<svg xmlns="http://www.w3.org/2000/svg" xmlns:svg="http://www.w3.org/2000/svg" xmlns:xlink="http://www.w3.org/1999/xlink" id="svg137" width="375" height="66" version="1.1" viewBox="1 1 375 66"><metadata id="metadata141"/><defs id="defs3"><circle id="a" cx="96" cy="96" r="88"/><linearGradient id="linearGradient204" x1="29.337" x2="81.837" y1="75.021" y2="44.354" gradientUnits="userSpaceOnUse" xlink:href="#c"/><linearGradient id="linearGradient206" x1="110.87" x2="52.538" y1="164.5" y2="130.33" gradientUnits="userSpaceOnUse" xlink:href="#d"/><linearGradient id="linearGradient208" x1="121.86" x2="136.55" y1="49.804" y2="114.13" gradientUnits="userSpaceOnUse" xlink:href="#g"/><linearGradient id="linearGradient210" x1="121.86" x2="136.55" y1="49.804" y2="114.13" gradientUnits="userSpaceOnUse" xlink:href="#g"/><linearGradient id="linearGradient212" x1="29.337" x2="81.837" y1="75.021" y2="44.354" gradientUnits="userSpaceOnUse" xlink:href="#c"/><linearGradient id="linearGradient214" x1="110.87" x2="52.538" y1="164.5" y2="130.33" gradientUnits="userSpaceOnUse" xlink:href="#d"/><radialGradient id="radial-gradient" cx="-14480.522" cy="-8329.079" r="450.875" fx="-14509.281" gradientTransform="matrix(0.762,0.034,-0.05,1.12,11560.893,10069.103)" gradientUnits="userSpaceOnUse"><stop id="stop446" offset=".045" stop-color="#ffea00"/><stop id="stop448" offset=".12" stop-color="#ffde00"/><stop id="stop450" offset=".254" stop-color="#ffbf00"/><stop id="stop452" offset=".429" stop-color="#ff8e00"/><stop id="stop454" offset=".769" stop-color="#ff272d"/><stop id="stop456" offset=".872" stop-color="#e0255a"/><stop id="stop458" offset=".953" stop-color="#cc2477"/><stop id="stop460" offset="1" stop-color="#c42482"/></radialGradient><radialGradient id="radial-gradient-2" cx="-7529.669" cy="-7921.608" r="791.229" gradientTransform="matrix(1.225,0,0,1.225,9921.963,9899.103)" gradientUnits="userSpaceOnUse"><stop id="stop463" offset="0" stop-color="#00ccda"/><stop id="stop465" offset=".22" stop-color="#0083ff"/><stop id="stop467" offset=".261" stop-color="#007af9"/><stop id="stop469" offset=".33" stop-color="#0060e8"/><stop id="stop471" offset=".333" stop-color="#005fe7"/><stop id="stop473" offset=".438" stop-color="#2639ad"/><stop id="stop475" offset=".522" stop-color="#401e84"/><stop id="stop477" offset=".566" stop-color="#4a1475"/></radialGradient><linearGradient id="linear-gradient" x1="575.669" x2="384.231" y1="731.188" y2="104.96" gradientUnits="userSpaceOnUse"><stop id="stop480" offset="0" stop-color="#000f43" stop-opacity=".4"/><stop id="stop482" offset=".485" stop-color="#001962" stop-opacity=".173"/><stop id="stop484" offset="1" stop-color="#002079" stop-opacity="0"/></linearGradient><radialGradient id="radial-gradient-3" cx="-8260.94" cy="-6516.556" r="266.886" gradientTransform="matrix(1.219,0.123,-0.123,1.219,10296.265,9597.23)" gradientUnits="userSpaceOnUse"><stop id="stop487" offset=".003" stop-color="#ffea00"/><stop id="stop489" offset=".497" stop-color="#ff272d"/><stop id="stop491" offset="1" stop-color="#c42482"/></radialGradient><radialGradient id="radial-gradient-4" cx="-8285.087" cy="-6772.468" r="445.678" gradientTransform="matrix(1.219,0.123,-0.123,1.219,10296.265,9597.23)" gradientUnits="userSpaceOnUse"><stop id="stop494" offset=".003" stop-color="#ffe900"/><stop id="stop496" offset=".157" stop-color="#ffaf0e"/><stop id="stop498" offset=".316" stop-color="#ff7a1b"/><stop id="stop500" offset=".472" stop-color="#ff4e26"/><stop id="stop502" offset=".621" stop-color="#ff2c2e"/><stop id="stop504" offset=".762" stop-color="#ff1434"/><stop id="stop506" offset=".892" stop-color="#ff0538"/><stop id="stop508" offset="1" stop-color="#ff0039"/></radialGradient><radialGradient id="radial-gradient-5" cx="-8222.051" cy="-6359.332" r="408.958" gradientTransform="matrix(1.219,0.123,-0.123,1.219,10296.265,9597.23)" gradientUnits="userSpaceOnUse"><stop id="stop511" offset=".003" stop-color="#ff272d"/><stop id="stop513" offset=".497" stop-color="#c42482"/><stop id="stop515" offset=".986" stop-color="#620700"/></radialGradient><radialGradient id="radial-gradient-6" cx="750.189" cy="396.041" r="782.18" fx="778.167" fy="382.212" gradientUnits="userSpaceOnUse"><stop id="stop518" offset=".156" stop-color="#ffea00"/><stop id="stop520" offset=".231" stop-color="#ffde00"/><stop id="stop522" offset=".365" stop-color="#ffbf00"/><stop id="stop524" offset=".541" stop-color="#ff8e00"/><stop id="stop526" offset=".763" stop-color="#ff272d"/><stop id="stop528" offset=".796" stop-color="#f92433"/><stop id="stop530" offset=".841" stop-color="#e91c45"/><stop id="stop532" offset=".893" stop-color="#cf0e62"/><stop id="stop534" offset=".935" stop-color="#b5007f"/></radialGradient><radialGradient id="radial-gradient-7" cx="691.339" cy="3.289" r="923.615" gradientUnits="userSpaceOnUse"><stop id="stop537" offset=".279" stop-color="#ffea00"/><stop id="stop539" offset=".402" stop-color="#fd0"/><stop id="stop541" offset=".63" stop-color="#ffba00"/><stop id="stop543" offset=".856" stop-color="#ff9100"/><stop id="stop545" offset=".933" stop-color="#ff6711"/><stop id="stop547" offset=".994" stop-color="#ff4a1d"/></radialGradient><linearGradient id="linear-gradient-2" x1="-8944.65" x2="-8660.289" y1="-6677.742" y2="-6750.226" gradientTransform="matrix(1.219,0.123,-0.123,1.219,10296.265,9597.23)" gradientUnits="userSpaceOnUse"><stop id="stop550" offset="0" stop-color="#c42482" stop-opacity=".5"/><stop id="stop552" offset=".474" stop-color="#ff272d" stop-opacity=".5"/><stop id="stop554" offset=".486" stop-color="#ff2c2c" stop-opacity=".513"/><stop id="stop556" offset=".675" stop-color="#ff7a1a" stop-opacity=".72"/><stop id="stop558" offset=".829" stop-color="#ffb20d" stop-opacity=".871"/><stop id="stop560" offset=".942" stop-color="#ffd605" stop-opacity=".964"/><stop id="stop562" offset="1" stop-color="#ffe302"/></linearGradient><linearGradient id="linear-gradient-3" x1="245.347" x2="190.775" y1="-1082.012" y2="-1221.859" gradientTransform="matrix(0.995,0.1,-0.1,0.995,-173.696,1313.941)" gradientUnits="userSpaceOnUse"><stop id="stop565" offset="0" stop-color="#891551" stop-opacity=".6"/><stop id="stop567" offset="1" stop-color="#c42482" stop-opacity="0"/></linearGradient><linearGradient id="linear-gradient-4" x1="22.04" x2="116.148" y1="718.827" y2="825.714" gradientTransform="matrix(0.995,0.1,-0.1,0.995,305.439,-246.471)" gradientUnits="userSpaceOnUse"><stop id="stop570" offset=".005" stop-color="#891551" stop-opacity=".5"/><stop id="stop572" offset=".484" stop-color="#ff272d" stop-opacity=".5"/><stop id="stop574" offset="1" stop-color="#ff272d" stop-opacity="0"/></linearGradient><linearGradient id="linear-gradient-5" x1="200.104" x2="200.171" y1="904.616" y2="829.835" gradientTransform="matrix(0.995,0.1,-0.1,0.995,305.439,-246.471)" gradientUnits="userSpaceOnUse"><stop id="stop577" offset="0" stop-color="#c42482"/><stop id="stop579" offset=".083" stop-color="#c42482" stop-opacity=".81"/><stop id="stop581" offset=".206" stop-color="#c42482" stop-opacity=".565"/><stop id="stop583" offset=".328" stop-color="#c42482" stop-opacity=".362"/><stop id="stop585" offset=".447" stop-color="#c42482" stop-opacity=".204"/><stop id="stop587" offset=".562" stop-color="#c42482" stop-opacity=".091"/><stop id="stop589" offset=".673" stop-color="#c42482" stop-opacity=".023"/><stop id="stop591" offset=".773" stop-color="#c42482" stop-opacity="0"/></linearGradient><linearGradient id="linear-gradient-6" x1="655.531" x2="961.187" y1="38.12" y2="721.615" gradientUnits="userSpaceOnUse"><stop id="stop594" offset="0" stop-color="#fff14f"/><stop id="stop596" offset=".268" stop-color="#ffee4c"/><stop id="stop598" offset=".452" stop-color="#ffe643"/><stop id="stop600" offset=".612" stop-color="#ffd834"/><stop id="stop602" offset=".757" stop-color="#ffc41e"/><stop id="stop604" offset=".892" stop-color="#ffab02"/><stop id="stop606" offset=".902" stop-color="#ffa900"/><stop id="stop608" offset=".949" stop-color="#ffa000"/><stop id="stop610" offset="1" stop-color="#ff9100"/></linearGradient><linearGradient id="linear-gradient-7" x1="715.885" x2="571.098" y1="431.21" y2="819.96" gradientUnits="userSpaceOnUse"><stop id="stop613" offset="0" stop-color="#ff8e00"/><stop id="stop615" offset=".04" stop-color="#ff8e00" stop-opacity=".858"/><stop id="stop617" offset=".084" stop-color="#ff8e00" stop-opacity=".729"/><stop id="stop619" offset=".13" stop-color="#ff8e00" stop-opacity=".628"/><stop id="stop621" offset=".178" stop-color="#ff8e00" stop-opacity=".557"/><stop id="stop623" offset=".227" stop-color="#ff8e00" stop-opacity=".514"/><stop id="stop625" offset=".282" stop-color="#ff8e00" stop-opacity=".5"/><stop id="stop627" offset=".389" stop-color="#ff8e00" stop-opacity=".478"/><stop id="stop629" offset=".524" stop-color="#ff8e00" stop-opacity=".416"/><stop id="stop631" offset=".676" stop-color="#ff8e00" stop-opacity=".314"/><stop id="stop633" offset=".838" stop-color="#ff8e00" stop-opacity=".172"/><stop id="stop635" offset="1" stop-color="#ff8e00" stop-opacity="0"/></linearGradient><linearGradient id="linearGradient2135"><stop style="stop-color:#06c2e7;stop-opacity:1" id="stop2131" offset="0"/><stop id="stop2143" offset=".25" style="stop-color:#0db8ec;stop-opacity:1"/><stop id="stop2139" offset=".5" style="stop-color:#12aef1;stop-opacity:1"/><stop style="stop-color:#1f86f9;stop-opacity:1" id="stop2141" offset=".75"/><stop style="stop-color:#107ddd;stop-opacity:1" id="stop2133" offset="1"/></linearGradient><linearGradient id="linearGradient2127"><stop style="stop-color:#bdbdbd;stop-opacity:1" id="stop2123" offset="0"/><stop style="stop-color:#fff;stop-opacity:1" id="stop2125" offset="1"/></linearGradient><linearGradient id="linearGradient2129" x1="412.975" x2="412.975" y1="237.608" y2="59.392" gradientTransform="matrix(0.35154274,0,0,0.35154274,206.79018,159.77261)" gradientUnits="userSpaceOnUse" xlink:href="#linearGradient2127"/><radialGradient id="radialGradient2137" cx="413.061" cy="136.818" r="82.125" fx="413.061" fy="136.818" gradientTransform="matrix(0.38143305,0,0,0.38143298,194.54473,155.58044)" gradientUnits="userSpaceOnUse" xlink:href="#linearGradient2135"/><filter style="color-interpolation-filters:sRGB" id="filter2222" width="1.042" height="1.045" x="-.021" y="-.022"><feGaussianBlur id="feGaussianBlur2224" stdDeviation=".958"/></filter><filter style="color-interpolation-filters:sRGB" id="filter2248" width="1.096" height="1.096" x="-.048" y="-.048"><feGaussianBlur id="feGaussianBlur2250" stdDeviation="3.564"/></filter><style id="style4695">.cls-1{fill:url(#linear-gradient)}.cls-2{opacity:.35;fill:url(#radial-gradient)}.cls-2,.cls-4{isolation:isolate}.cls-3{fill:url(#linear-gradient-2)}.cls-4{opacity:.41;fill:url(#radial-gradient-2)}.cls-5{fill:url(#radial-gradient-3)}.cls-6{fill:url(#radial-gradient-4)}</style><linearGradient id="linear-gradient-51" x1="63.33" x2="241.67" y1="84.03" y2="84.03" gradientTransform="matrix(1,0,0,-1,0,266)" gradientUnits="userSpaceOnUse"><stop id="stop4697" offset="0" stop-color="#0c59a4"/><stop id="stop4699" offset="1" stop-color="#114a8b"/></linearGradient><radialGradient id="radial-gradient-9" cx="161.83" cy="68.91" r="95.38" gradientTransform="matrix(1,0,0,-0.95,0,248.84)" gradientUnits="userSpaceOnUse"><stop id="stop4702" offset=".72" stop-opacity="0"/><stop id="stop4704" offset=".95" stop-opacity=".53"/><stop id="stop4706" offset="1"/></radialGradient><linearGradient id="linear-gradient-2-6" x1="157.35" x2="45.96" y1="161.39" y2="40.06" gradientTransform="matrix(1,0,0,-1,0,266)" gradientUnits="userSpaceOnUse"><stop id="stop4709" offset="0" stop-color="#1b9de2"/><stop id="stop4711" offset=".16" stop-color="#1595df"/><stop id="stop4713" offset=".67" stop-color="#0680d7"/><stop id="stop4715" offset="1" stop-color="#0078d4"/></linearGradient><radialGradient id="radial-gradient-2-1" cx="-340.29" cy="62.99" r="143.24" gradientTransform="matrix(0.15,-0.99,-0.8,-0.12,176.64,-125.4)" gradientUnits="userSpaceOnUse"><stop id="stop4718" offset=".76" stop-opacity="0"/><stop id="stop4720" offset=".95" stop-opacity=".5"/><stop id="stop4722" offset="1"/></radialGradient><radialGradient id="radial-gradient-3-3" cx="113.37" cy="570.21" r="202.43" gradientTransform="matrix(-0.04,1,2.13,0.08,-1179.54,-106.69)" gradientUnits="userSpaceOnUse"><stop id="stop4725" offset="0" stop-color="#35c1f1"/><stop id="stop4727" offset=".11" stop-color="#34c1ed"/><stop id="stop4729" offset=".23" stop-color="#2fc2df"/><stop id="stop4731" offset=".31" stop-color="#2bc3d2"/><stop id="stop4733" offset=".67" stop-color="#36c752"/></radialGradient><radialGradient id="radial-gradient-4-3" cx="376.52" cy="567.97" r="97.34" gradientTransform="matrix(0.28,0.96,0.78,-0.23,-303.76,-148.5)" gradientUnits="userSpaceOnUse"><stop id="stop4736" offset="0" stop-color="#66eb6e"/><stop id="stop4738" offset="1" stop-color="#66eb6e" stop-opacity="0"/></radialGradient><linearGradient id="a-3" x1="70.786" x2="6.447" y1="12.393" y2="74.468" gradientTransform="translate(3.7,-0.0040855)" gradientUnits="userSpaceOnUse"><stop id="stop834" offset=".048" stop-color="#fff44f"/><stop id="stop836" offset=".111" stop-color="#ffe847"/><stop id="stop838" offset=".225" stop-color="#ffc830"/><stop id="stop840" offset=".368" stop-color="#ff980e"/><stop id="stop842" offset=".401" stop-color="#ff8b16"/><stop id="stop844" offset=".462" stop-color="#ff672a"/><stop id="stop846" offset=".534" stop-color="#ff3647"/><stop id="stop848" offset=".705" stop-color="#e31587"/></linearGradient><radialGradient id="b-1" cx="-7907.187" cy="-8515.121" r="80.797" gradientTransform="translate(7978.7,8523.9959)" gradientUnits="userSpaceOnUse"><stop id="stop851" offset=".129" stop-color="#ffbd4f"/><stop id="stop853" offset=".186" stop-color="#ffac31"/><stop id="stop855" offset=".247" stop-color="#ff9d17"/><stop id="stop857" offset=".283" stop-color="#ff980e"/><stop id="stop859" offset=".403" stop-color="#ff563b"/><stop id="stop861" offset=".467" stop-color="#ff3750"/><stop id="stop863" offset=".71" stop-color="#f5156c"/><stop id="stop865" offset=".782" stop-color="#eb0878"/><stop id="stop867" offset=".86" stop-color="#e50080"/></radialGradient><radialGradient id="c-4" cx="-7936.711" cy="-8482.089" r="80.797" gradientTransform="translate(7978.7,8523.9959)" gradientUnits="userSpaceOnUse"><stop id="stop870" offset=".3" stop-color="#960e18"/><stop id="stop872" offset=".351" stop-color="#b11927" stop-opacity=".74"/><stop id="stop874" offset=".435" stop-color="#db293d" stop-opacity=".343"/><stop id="stop876" offset=".497" stop-color="#f5334b" stop-opacity=".094"/><stop id="stop878" offset=".53" stop-color="#ff3750" stop-opacity="0"/></radialGradient><radialGradient id="d-8" cx="-7926.97" cy="-8533.457" r="58.534" gradientTransform="translate(7978.7,8523.9959)" gradientUnits="userSpaceOnUse"><stop id="stop881" offset=".132" stop-color="#fff44f"/><stop id="stop883" offset=".252" stop-color="#ffdc3e"/><stop id="stop885" offset=".506" stop-color="#ff9d12"/><stop id="stop887" offset=".526" stop-color="#ff980e"/></radialGradient><radialGradient id="e-0" cx="-7945.648" cy="-8460.984" r="38.471" gradientTransform="translate(7978.7,8523.9959)" gradientUnits="userSpaceOnUse"><stop id="stop890" offset=".353" stop-color="#3a8ee6"/><stop id="stop892" offset=".472" stop-color="#5c79f0"/><stop id="stop894" offset=".669" stop-color="#9059ff"/><stop id="stop896" offset="1" stop-color="#c139e6"/></radialGradient><radialGradient id="f-8" cx="-7935.62" cy="-8491.546" r="20.397" gradientTransform="matrix(0.972,-0.235,0.275,1.138,10095.002,7833.7939)" gradientUnits="userSpaceOnUse"><stop id="stop899" offset=".206" stop-color="#9059ff" stop-opacity="0"/><stop id="stop901" offset=".278" stop-color="#8c4ff3" stop-opacity=".064"/><stop id="stop903" offset=".747" stop-color="#7716a8" stop-opacity=".45"/><stop id="stop905" offset=".975" stop-color="#6e008b" stop-opacity=".6"/></radialGradient><radialGradient id="g-6" cx="-7937.731" cy="-8518.427" r="27.676" gradientTransform="translate(7978.7,8523.9959)" gradientUnits="userSpaceOnUse"><stop id="stop908" offset="0" stop-color="#ffe226"/><stop id="stop910" offset=".121" stop-color="#ffdb27"/><stop id="stop912" offset=".295" stop-color="#ffc82a"/><stop id="stop914" offset=".502" stop-color="#ffa930"/><stop id="stop916" offset=".732" stop-color="#ff7e37"/><stop id="stop918" offset=".792" stop-color="#ff7139"/></radialGradient><radialGradient id="h" cx="-7915.977" cy="-8535.981" r="118.081" gradientTransform="translate(7978.7,8523.9959)" gradientUnits="userSpaceOnUse"><stop id="stop921" offset=".113" stop-color="#fff44f"/><stop id="stop923" offset=".456" stop-color="#ff980e"/><stop id="stop925" offset=".622" stop-color="#ff5634"/><stop id="stop927" offset=".716" stop-color="#ff3647"/><stop id="stop929" offset=".904" stop-color="#e31587"/></radialGradient><radialGradient id="i-7" cx="-7927.165" cy="-8522.859" r="86.499" gradientTransform="matrix(0.105,0.995,-0.653,0.069,-4680.304,8470.1869)" gradientUnits="userSpaceOnUse"><stop id="stop932" offset="0" stop-color="#fff44f"/><stop id="stop934" offset=".06" stop-color="#ffe847"/><stop id="stop936" offset=".168" stop-color="#ffc830"/><stop id="stop938" offset=".304" stop-color="#ff980e"/><stop id="stop940" offset=".356" stop-color="#ff8b16"/><stop id="stop942" offset=".455" stop-color="#ff672a"/><stop id="stop944" offset=".57" stop-color="#ff3647"/><stop id="stop946" offset=".737" stop-color="#e31587"/></radialGradient><radialGradient id="j-3" cx="-7938.383" cy="-8508.176" r="73.72" gradientTransform="translate(7978.7,8523.9959)" gradientUnits="userSpaceOnUse"><stop id="stop949" offset=".137" stop-color="#fff44f"/><stop id="stop951" offset=".48" stop-color="#ff980e"/><stop id="stop953" offset=".592" stop-color="#ff5634"/><stop id="stop955" offset=".655" stop-color="#ff3647"/><stop id="stop957" offset=".904" stop-color="#e31587"/></radialGradient><radialGradient id="k" cx="-7918.923" cy="-8503.861" r="80.686" gradientTransform="translate(7978.7,8523.9959)" gradientUnits="userSpaceOnUse"><stop id="stop960" offset=".094" stop-color="#fff44f"/><stop id="stop962" offset=".231" stop-color="#ffe141"/><stop id="stop964" offset=".509" stop-color="#ffaf1e"/><stop id="stop966" offset=".626" stop-color="#ff980e"/></radialGradient><linearGradient id="l-3" x1="70.013" x2="15.267" y1="12.061" y2="66.806" gradientTransform="translate(3.7,-0.0040855)" gradientUnits="userSpaceOnUse"><stop id="stop969" offset=".167" stop-color="#fff44f" stop-opacity=".8"/><stop id="stop971" offset=".266" stop-color="#fff44f" stop-opacity=".634"/><stop id="stop973" offset=".489" stop-color="#fff44f" stop-opacity=".217"/><stop id="stop975" offset=".6" stop-color="#fff44f" stop-opacity="0"/></linearGradient></defs><clipPath id="b"><use style="overflow:visible" id="use5" width="100%" height="100%" x="0" y="0" overflow="visible" xlink:href="#a"/></clipPath><radialGradient id="l" cx="668.18" cy="55.948" r="84.078" gradientTransform="translate(-576)" gradientUnits="userSpaceOnUse"><stop id="stop73" offset="0" stop-color="#3E2723" stop-opacity=".2"/><stop id="stop75" offset="1" stop-color="#3E2723" stop-opacity="0"/></radialGradient><radialGradient id="p" cx="597.88" cy="48.52" r="78.044" gradientTransform="translate(-576)" gradientUnits="userSpaceOnUse"><stop id="stop94" offset="0" stop-color="#3E2723" stop-opacity=".2"/><stop id="stop96" offset="1" stop-color="#3E2723" stop-opacity="0"/></radialGradient><radialGradient id="q" cx="671.84" cy="96.138" r="87.87" gradientTransform="translate(-576)" gradientUnits="userSpaceOnUse"><stop id="stop101" offset="0" stop-color="#263238" stop-opacity=".2"/><stop id="stop103" offset="1" stop-color="#263238" stop-opacity="0"/></radialGradient><radialGradient id="r" cx="34.286" cy="32.014" r="176.75" gradientTransform="translate(-7,-7)" gradientUnits="userSpaceOnUse"><stop id="stop130" offset="0" stop-color="#fff" stop-opacity=".1"/><stop id="stop132" offset="1" stop-color="#fff" stop-opacity="0"/></radialGradient><g id="g202" transform="matrix(0.34090909,0,0,0.34090909,234.43897,3.659091)"><g id="g17" clip-path="url(#b)" transform="translate(-7,-7)"><path style="fill:#db4437" id="path8" d="M 21.97,8 V 116 H 61.36 L 96,56 h 88 V 8 Z"/><linearGradient id="c" x1="29.337" x2="81.837" y1="75.021" y2="44.354" gradientUnits="userSpaceOnUse"><stop id="stop10" offset="0" stop-color="#A52714" stop-opacity=".6"/><stop id="stop12" offset=".66" stop-color="#A52714" stop-opacity="0"/></linearGradient><path style="fill:url(#linearGradient204)" id="path15" d="M 21.97,8 V 116 H 61.36 L 96,56 h 88 V 8 Z"/></g><path style="fill:#3e2723;fill-opacity:.15" id="path19" d="m 62.31,115.65 -39.83,-68.31 -0.58,1 39.54,67.8 z" clip-path="url(#b)" transform="translate(-7,-7)"/><g id="g30" clip-path="url(#b)" transform="translate(-7,-7)"><path style="fill:#0f9d58" id="path21" d="m 8,184 h 83.77 l 38.88,-38.88 V 116 H 61.36 L 8,24.48 Z"/><linearGradient id="d" x1="110.87" x2="52.538" y1="164.5" y2="130.33" gradientUnits="userSpaceOnUse"><stop id="stop23" offset="0" stop-color="#055524" stop-opacity=".4"/><stop id="stop25" offset=".33" stop-color="#055524" stop-opacity="0"/></linearGradient><path style="fill:url(#linearGradient206)" id="path28" d="m 8,184 h 83.77 l 38.88,-38.88 V 116 H 61.36 L 8,24.48 Z"/></g><path style="fill:#263238;fill-opacity:.15" id="path32" d="M 129.84,117.33 129.01,116.85 90.62,184 h 1.15 l 38.1,-66.64 z" clip-path="url(#b)" transform="translate(-7,-7)"/><g id="g51" clip-path="url(#b)" transform="translate(-7,-7)"><defs id="defs35"><path id="e" d="m 8,184 h 83.77 l 38.88,-38.88 V 116 H 61.36 L 8,24.48 Z"/></defs><clipPath id="f"><use style="overflow:visible" id="use37" width="100%" height="100%" x="0" y="0" overflow="visible" xlink:href="#e"/></clipPath><g id="g49" clip-path="url(#f)"><path style="fill:#ffcd40" id="path40" d="m 96,56 34.65,60 -38.88,68 H 184 V 56 Z"/><linearGradient id="g" x1="121.86" x2="136.55" y1="49.804" y2="114.13" gradientUnits="userSpaceOnUse"><stop id="stop42" offset="0" stop-color="#EA6100" stop-opacity=".3"/><stop id="stop44" offset=".66" stop-color="#EA6100" stop-opacity="0"/></linearGradient><path style="fill:url(#linearGradient208)" id="path47" d="m 96,56 34.65,60 -38.88,68 H 184 V 56 Z"/></g></g><g id="g57" clip-path="url(#b)" transform="translate(-7,-7)"><path style="fill:#ffcd40" id="path53" d="m 96,56 34.65,60 -38.88,68 H 184 V 56 Z"/><path style="fill:url(#linearGradient210)" id="path55" d="m 96,56 34.65,60 -38.88,68 H 184 V 56 Z"/></g><g id="g71" clip-path="url(#b)" transform="translate(-7,-7)"><defs id="defs60"><path id="i" d="m 96,56 34.65,60 -38.88,68 H 184 V 56 Z"/></defs><clipPath id="j"><use style="overflow:visible" id="use62" width="100%" height="100%" x="0" y="0" overflow="visible" xlink:href="#i"/></clipPath><g id="g69" clip-path="url(#j)"><path style="fill:#db4437" id="path65" d="M 21.97,8 V 116 H 61.36 L 96,56 h 88 V 8 Z"/><path style="fill:url(#linearGradient212)" id="path67" d="M 21.97,8 V 116 H 61.36 L 96,56 h 88 V 8 Z"/></g></g><path style="fill:url(#l)" id="path78" d="M 96,56 V 76.95 L 174.4,56 Z" clip-path="url(#b)" transform="translate(-7,-7)"/><g id="g92" clip-path="url(#b)" transform="translate(-7,-7)"><defs id="defs81"><path id="m" d="M 21.97,8 V 48.34 L 61.36,116 96,56 h 88 V 8 Z"/></defs><clipPath id="n"><use style="overflow:visible" id="use83" width="100%" height="100%" x="0" y="0" overflow="visible" xlink:href="#m"/></clipPath><g id="g90" clip-path="url(#n)"><path style="fill:#0f9d58" id="path86" d="m 8,184 h 83.77 l 38.88,-38.88 V 116 H 61.36 L 8,24.48 Z"/><path style="fill:url(#linearGradient214)" id="path88" d="m 8,184 h 83.77 l 38.88,-38.88 V 116 H 61.36 L 8,24.48 Z"/></g></g><path style="fill:url(#p)" id="path99" d="M 21.97,48.45 79.22,105.69 61.36,116 Z" clip-path="url(#b)" transform="translate(-7,-7)"/><path style="fill:url(#q)" id="path106" d="m 91.83,183.89 20.96,-78.2 17.86,10.31 z" clip-path="url(#b)" transform="translate(-7,-7)"/><g id="g112" clip-path="url(#b)" transform="translate(-7,-7)"><circle style="fill:#f1f1f1" id="circle108" cx="96" cy="96" r="40"/><circle style="fill:#4285f4" id="circle110" cx="96" cy="96" r="32"/></g><g id="g122" clip-path="url(#b)" transform="translate(-7,-7)"><path style="fill:#3e2723;fill-opacity:.2" id="path114" d="M 96,55 C 73.91,55 56,72.91 56,95 v 1 C 56,73.91 73.91,56 96,56 h 88 v -1 z"/><path style="fill:#fff;fill-opacity:.1" id="path116" d="m 130.6,116 c -6.92,11.94 -19.81,20 -34.6,20 -14.8,0 -27.69,-8.06 -34.61,-20 H 61.35 L 8,24.48 v 1 L 61.36,117 h 0.04 c 6.92,11.94 19.81,20 34.61,20 14.79,0 27.68,-8.05 34.6,-20 h 0.05 v -1 z"/><path style="opacity:.1;fill:#3e2723" id="path118" d="m 97,56 c -0.17,0 -0.33,0.02 -0.5,0.03 21.86,0.27 39.5,18.05 39.5,39.97 0,21.92 -17.64,39.7 -39.5,39.97 0.17,0 0.33,0.03 0.5,0.03 22.09,0 40,-17.91 40,-40 0,-22.09 -17.91,-40 -40,-40 z"/><path style="fill:#fff;fill-opacity:.2" id="path120" d="m 131,117.33 c 3.4,-5.88 5.37,-12.68 5.37,-19.96 0,-4.22 -0.66,-8.28 -1.87,-12.09 0.95,3.42 1.5,7.01 1.5,10.73 0,7.28 -1.97,14.08 -5.37,19.96 l 0.02,0.04 -38.88,68 h 1.16 l 38.09,-66.64 z"/></g><g id="g128" clip-path="url(#b)" transform="translate(-7,-7)"><path style="fill:#fff;fill-opacity:.2" id="path124" d="m 96,9 c 48.43,0 87.72,39.13 87.99,87.5 0,-0.17 0.01,-0.33 0.01,-0.5 C 184,47.4 144.6,8 96,8 47.4,8 8,47.4 8,96 8,96.17 8.01,96.33 8.01,96.5 8.28,48.13 47.57,9 96,9 Z"/><path style="fill:#3e2723;fill-opacity:.15" id="path126" d="m 96,183 c 48.43,0 87.72,-39.13 87.99,-87.5 0,0.17 0.01,0.33 0.01,0.5 0,48.6 -39.4,88 -88,88 C 47.4,184 8,144.6 8,96 8,95.83 8.01,95.67 8.01,95.5 8.28,143.87 47.57,183 96,183 Z"/></g><circle style="fill:url(#r)" id="circle135" cx="89" cy="89" r="88"/></g><g id="layer1" transform="matrix(0.94247794,0,0,0.94248138,-143.89007,-166.21686)"><g id="g2858"><path style="opacity:.52999998;fill:#000;fill-opacity:1;stroke:none;stroke-width:2.93077397;stroke-linecap:round;stroke-linejoin:round;stroke-miterlimit:4;stroke-dasharray:none;stroke-dashoffset:0;stroke-opacity:1;paint-order:markers stroke fill;filter:url(#filter2248)" id="path2226" d="M 502.08277,148.5 A 89.107765,89.107765 0 0 1 412.975,237.60777 89.107765,89.107765 0 0 1 323.86724,148.5 89.107765,89.107765 0 0 1 412.975,59.392235 89.107765,89.107765 0 0 1 502.08277,148.5 Z" transform="matrix(0.33864636,0,0,0.32609457,212.11606,166.11668)"/><path id="path826" d="m 383.29373,211.97671 a 31.325188,31.325188 0 0 1 -31.32519,31.32519 31.325188,31.325188 0 0 1 -31.32518,-31.32519 31.325188,31.325188 0 0 1 31.32518,-31.32519 31.325188,31.325188 0 0 1 31.32519,31.32519 z" style="opacity:1;fill:url(#linearGradient2129);fill-opacity:1;stroke:#cdcdcd;stroke-width:.09301235;stroke-linecap:round;stroke-linejoin:round;stroke-miterlimit:4;stroke-dasharray:none;stroke-dashoffset:0;stroke-opacity:1;paint-order:markers stroke fill"/><path id="circle828" d="m 380.83911,211.97671 a 28.870571,28.870571 0 0 1 -28.87057,28.87057 28.870571,28.870571 0 0 1 -28.87057,-28.87057 28.870571,28.870571 0 0 1 28.87057,-28.87057 28.870571,28.870571 0 0 1 28.87057,28.87057 z" style="opacity:1;fill:url(#radialGradient2137);fill-opacity:1;stroke:none;stroke-width:.94955933;stroke-linecap:round;stroke-linejoin:round;stroke-miterlimit:4;stroke-dasharray:none;stroke-dashoffset:0;stroke-opacity:1;paint-order:markers stroke fill"/><path id="rect830" d="m 351.96854,184.61172 c -0.23319,0 -0.42092,0.18772 -0.42092,0.42092 v 4.85517 c 0,0.2332 0.18773,0.42092 0.42092,0.42092 0.2332,0 0.42092,-0.18772 0.42092,-0.42092 v -4.85517 c 0,-0.2332 -0.18772,-0.42092 -0.42092,-0.42092 z m -2.75367,0.17404 c -0.0279,-0.003 -0.0566,-0.003 -0.0856,3.5e-4 -0.23194,0.0242 -0.39917,0.2304 -0.37495,0.46234 l 0.21218,2.03119 c 0.0242,0.23194 0.23041,0.39918 0.46233,0.37496 0.23195,-0.0242 0.39919,-0.2304 0.37496,-0.46234 l -0.212,-2.03118 c -0.0212,-0.20295 -0.18177,-0.35637 -0.37695,-0.37532 z m 5.5266,0.002 c -0.19519,0.0188 -0.35578,0.17221 -0.37714,0.37513 l -0.21363,2.03102 c -0.0244,0.23192 0.14285,0.43831 0.37478,0.4627 0.23191,0.0244 0.43811,-0.14268 0.46251,-0.3746 l 0.21364,-2.03119 c 0.0244,-0.23192 -0.14286,-0.43814 -0.37478,-0.46252 -0.029,-0.003 -0.0575,-0.003 -0.0854,-5.2e-4 z m -8.3553,0.4082 c -0.028,2.2e-4 -0.0565,0.003 -0.085,0.009 -0.22814,0.0483 -0.37294,0.27089 -0.32464,0.49903 l 1.00552,4.74981 c 0.0483,0.22814 0.27088,0.37293 0.49902,0.32464 0.22814,-0.0483 0.37294,-0.27072 0.32465,-0.49886 l -1.00552,-4.74998 c -0.0423,-0.19963 -0.21792,-0.33543 -0.41401,-0.3339 z m 11.18382,0.004 c -0.19609,-0.002 -0.3718,0.13394 -0.41419,0.33353 l -1.00897,4.74925 c -0.0485,0.22811 0.0962,0.45076 0.32427,0.49922 0.22811,0.0485 0.45076,-0.0962 0.49921,-0.32428 l 1.00897,-4.74926 c 0.0485,-0.2281 -0.0962,-0.45076 -0.32427,-0.49921 -0.0285,-0.006 -0.057,-0.009 -0.085,-0.009 z m -13.88337,0.75717 c -0.0545,-0.005 -0.11077,0.001 -0.16622,0.0194 -0.22178,0.0721 -0.34238,0.3085 -0.27031,0.53028 l 0.6311,1.94236 c 0.0721,0.22179 0.30868,0.34238 0.53046,0.27032 0.22179,-0.0721 0.3422,-0.30868 0.27013,-0.53046 l -0.63109,-1.94236 c -0.054,-0.16634 -0.20059,-0.27568 -0.36407,-0.28958 z m 16.56765,0.001 c -0.16348,0.0139 -0.30999,0.12324 -0.36406,0.28957 l -0.63147,1.94218 c -0.0721,0.22177 0.0484,0.45837 0.27014,0.53046 0.22178,0.0721 0.45837,-0.0484 0.53047,-0.27013 l 0.63146,-1.94236 c 0.0721,-0.22178 -0.0484,-0.45837 -0.27014,-0.53046 -0.0554,-0.018 -0.11191,-0.0239 -0.1664,-0.0193 z m -19.23721,0.9759 c -0.0547,0.001 -0.11004,0.013 -0.16331,0.0367 -0.21298,0.0947 -0.30836,0.34244 -0.21364,0.55553 l 1.97197,4.43662 c 0.0947,0.21308 0.34244,0.30836 0.55553,0.21364 0.21298,-0.0947 0.30854,-0.34244 0.21382,-0.55553 l -1.97216,-4.43662 c -0.071,-0.15983 -0.22817,-0.25351 -0.39221,-0.25033 z m 21.93693,0.0149 c -0.16403,-0.003 -0.32132,0.0901 -0.39257,0.24979 l -1.97798,4.4339 c -0.095,0.21296 -4e-5,0.46088 0.21292,0.55589 0.21297,0.095 0.46088,5e-5 0.5559,-0.21291 l 1.97796,-4.43389 c 0.095,-0.21297 5e-5,-0.46089 -0.21291,-0.5559 -0.0532,-0.0237 -0.10864,-0.0357 -0.16332,-0.0369 z m -24.41484,1.29618 c -0.0808,-0.006 -0.16406,0.012 -0.23979,0.0558 -0.20196,0.1166 -0.27065,0.37302 -0.15406,0.57497 l 1.02115,1.76869 c 0.1166,0.20196 0.373,0.27065 0.57496,0.15405 0.20195,-0.1166 0.27065,-0.37301 0.15406,-0.57497 l -1.02115,-1.76868 c -0.0729,-0.12623 -0.20047,-0.20041 -0.33517,-0.20983 z m 26.85877,0 c -0.13468,0.009 -0.26211,0.0836 -0.33498,0.20983 l -1.02133,1.76868 c -0.1166,0.20196 -0.0477,0.45837 0.15424,0.57497 0.20196,0.1166 0.45837,0.0479 0.57497,-0.15405 l 1.02114,-1.76869 c 0.1166,-0.20195 0.0479,-0.45837 -0.15406,-0.57497 -0.0757,-0.0437 -0.15916,-0.0614 -0.23998,-0.0558 z m -29.26491,1.50073 c -0.081,0.003 -0.16211,0.029 -0.2329,0.0803 -0.18875,0.13693 -0.23048,0.39911 -0.0935,0.58787 l 2.85086,3.92995 c 0.13693,0.18876 0.39929,0.23049 0.58805,0.0936 0.18876,-0.13693 0.23049,-0.39911 0.0935,-0.58787 l -2.85104,-3.92995 c -0.0856,-0.11798 -0.22004,-0.17847 -0.35497,-0.17386 z m 31.70122,0.0214 c -0.13493,-0.005 -0.26941,0.0555 -0.35516,0.17331 l -2.8563,3.92614 c -0.1372,0.18857 -0.0958,0.45086 0.0928,0.58805 0.18858,0.13718 0.45087,0.0959 0.58806,-0.0926 l 2.85613,-3.92614 c 0.13718,-0.18858 0.0957,-0.45086 -0.0928,-0.58805 -0.0707,-0.0514 -0.15176,-0.0778 -0.23272,-0.0807 z m -33.85196,1.78231 c -0.10744,-0.006 -0.21708,0.0299 -0.30374,0.10791 -0.17332,0.15602 -0.18725,0.42109 -0.0312,0.59441 l 1.36648,1.51799 c 0.15601,0.17332 0.42109,0.18726 0.59441,0.0312 0.17332,-0.15602 0.18726,-0.42127 0.0312,-0.59459 l -1.3663,-1.51781 c -0.078,-0.0867 -0.18339,-0.13351 -0.29085,-0.13916 z m 35.97562,0.003 c -0.10745,0.006 -0.21282,0.0525 -0.29084,0.13915 l -1.36648,1.51763 c -0.15606,0.1733 -0.14224,0.43855 0.0311,0.59459 0.17329,0.15604 0.43837,0.14205 0.59441,-0.0312 l 1.36666,-1.51762 c 0.15605,-0.17331 0.14205,-0.43856 -0.0312,-0.59459 -0.0867,-0.078 -0.19611,-0.11354 -0.30357,-0.10791 z m -38.03696,1.97705 c -0.10745,0.006 -0.21266,0.0525 -0.29067,0.13916 -0.15602,0.17332 -0.14207,0.43839 0.0312,0.59441 l 3.60841,3.24834 c 0.17332,0.15603 0.43839,0.14207 0.5944,-0.0312 0.15603,-0.17331 0.14226,-0.43839 -0.0311,-0.59441 l -3.60858,-3.24834 c -0.0867,-0.078 -0.1963,-0.11356 -0.30376,-0.10791 z m 40.10831,0.0142 c -0.10745,-0.006 -0.21722,0.0298 -0.30393,0.10773 l -3.61059,3.24581 c -0.17342,0.15589 -0.18768,0.42097 -0.0318,0.5944 0.1559,0.17342 0.42117,0.18751 0.59459,0.0316 l 3.61077,-3.2458 c 0.17342,-0.1559 0.1875,-0.42098 0.0316,-0.59441 -0.078,-0.0867 -0.18322,-0.13361 -0.29066,-0.13933 z m -41.8225,2.18998 c -0.13494,-0.005 -0.26949,0.0558 -0.35515,0.17367 -0.13707,0.18866 -0.0955,0.4508 0.0932,0.58787 l 1.65224,1.20044 c 0.18866,0.13708 0.45079,0.0957 0.58786,-0.093 0.13708,-0.18866 0.0956,-0.45098 -0.093,-0.58805 l -1.65224,-1.20044 c -0.0707,-0.0514 -0.15193,-0.0776 -0.23289,-0.0805 z m 43.53505,0.0153 c -0.081,0.003 -0.16211,0.0289 -0.23289,0.0803 l -1.65297,1.19936 c -0.18875,0.13694 -0.2305,0.39929 -0.0936,0.58805 0.13695,0.18875 0.39912,0.23031 0.58787,0.0934 l 1.65316,-1.19935 c 0.18875,-0.13694 0.23031,-0.39912 0.0934,-0.58787 -0.0856,-0.11797 -0.22004,-0.17847 -0.35497,-0.17385 z m -45.13697,2.33585 c -0.13469,0.009 -0.26211,0.0836 -0.33499,0.20982 -0.1166,0.20195 -0.0479,0.45837 0.15405,0.57497 l 4.20463,2.42758 c 0.20195,0.1166 0.45837,0.0479 0.57497,-0.15405 0.1166,-0.20195 0.0479,-0.45837 -0.15405,-0.57497 l -4.20463,-2.42759 c -0.0757,-0.0437 -0.15917,-0.0614 -0.23998,-0.0558 z m 46.72744,0 c -0.0808,-0.006 -0.16425,0.012 -0.23998,0.0558 l -4.20463,2.42759 c -0.20195,0.1166 -0.27065,0.37302 -0.15405,0.57497 0.1166,0.20195 0.37302,0.27065 0.57497,0.15405 l 4.20482,-2.42758 c 0.20195,-0.1166 0.27064,-0.37302 0.15404,-0.57497 -0.0729,-0.12622 -0.20048,-0.20041 -0.33517,-0.20982 z m -47.9386,2.50606 c -0.16403,-0.004 -0.32133,0.0899 -0.39258,0.2496 -0.095,0.21298 -6e-5,0.46091 0.21292,0.5559 l 1.86532,0.83202 c 0.21298,0.095 0.46091,7e-5 0.5559,-0.2129 0.095,-0.21298 -1.2e-4,-0.46091 -0.21309,-0.5559 l -1.86515,-0.83202 c -0.0532,-0.0238 -0.10865,-0.0356 -0.16332,-0.0367 z m 49.15794,0.0173 c -0.0547,10e-4 -0.11024,0.013 -0.16351,0.0367 l -1.86569,0.83057 c -0.21304,0.0949 -0.3083,0.34267 -0.21346,0.55571 0.0949,0.21304 0.34286,0.3083 0.5559,0.21346 l 1.8657,-0.83076 c 0.21303,-0.0948 0.30811,-0.34267 0.21327,-0.55571 -0.0711,-0.15978 -0.22818,-0.25323 -0.39221,-0.24997 z m -50.23739,2.60199 c -0.16349,0.0137 -0.31006,0.12291 -0.36424,0.28921 -0.0722,0.22172 0.048,0.45839 0.26977,0.53064 l 4.61629,1.50418 c 0.22171,0.0722 0.45839,-0.0481 0.53064,-0.26977 0.0722,-0.22172 -0.048,-0.4584 -0.26977,-0.53064 l -4.61628,-1.50419 c -0.0554,-0.0181 -0.11192,-0.024 -0.16641,-0.0194 z m 51.31484,0.018 c -0.0545,-0.005 -0.11078,10e-4 -0.16623,0.0194 l -4.61736,1.50092 c -0.22178,0.0721 -0.34223,0.30869 -0.27014,0.53046 0.0721,0.22177 0.30868,0.34223 0.53046,0.27014 l 4.61719,-1.50092 c 0.22178,-0.0721 0.3424,-0.30869 0.27032,-0.53046 -0.0541,-0.16633 -0.20077,-0.2757 -0.36424,-0.28957 z m -51.98736,2.73152 c -0.1961,-0.002 -0.37196,0.13412 -0.41438,0.33371 -0.0485,0.2281 0.0962,0.45073 0.32427,0.49922 l 1.99777,0.42455 c 0.2281,0.0485 0.45072,-0.0962 0.49921,-0.32427 0.0485,-0.22811 -0.0962,-0.45074 -0.32427,-0.49922 l -1.99759,-0.42455 c -0.0285,-0.006 -0.057,-0.009 -0.085,-0.009 z m 52.65462,0.004 c -0.028,2.3e-4 -0.0563,0.004 -0.0848,0.009 l -1.99778,0.42437 c -0.2281,0.0485 -0.37271,0.27093 -0.32426,0.49904 0.0485,0.2281 0.2711,0.3729 0.49921,0.32445 l 1.99759,-0.42437 c 0.2281,-0.0485 0.3729,-0.27111 0.32445,-0.49922 -0.0424,-0.19959 -0.21829,-0.33537 -0.41437,-0.33371 z m -53.16365,2.76167 c -0.1952,0.0187 -0.35587,0.17185 -0.37731,0.37477 -0.0245,0.2319 0.14232,0.43838 0.37422,0.46288 l 4.82829,0.51048 c 0.2319,0.0245 0.43838,-0.1425 0.46288,-0.37441 0.0245,-0.2319 -0.1425,-0.43838 -0.37441,-0.46288 l -4.82828,-0.51048 c -0.029,-0.003 -0.0575,-0.003 -0.0854,-3.5e-4 z m 53.6763,0.0363 c -0.0279,-0.003 -0.0566,-0.003 -0.0856,3.5e-4 l -4.82883,0.50394 c -0.23194,0.0242 -0.39914,0.2304 -0.37496,0.46233 0.0242,0.23194 0.2304,0.39918 0.46234,0.37496 l 4.82883,-0.50394 c 0.23193,-0.0242 0.39914,-0.2304 0.37496,-0.46234 -0.0212,-0.20294 -0.1816,-0.35634 -0.37678,-0.37532 z m -53.75805,2.79473 c -0.2332,0 -0.42091,0.18772 -0.42091,0.42092 0,0.23319 0.18771,0.42091 0.42091,0.42091 h 2.04228 c 0.23319,0 0.4211,-0.18772 0.4211,-0.42091 0,-0.2332 -0.18791,-0.42092 -0.4211,-0.42092 z m 51.79298,0 c -0.23319,0 -0.42092,0.18772 -0.42092,0.42092 10e-6,0.23319 0.18773,0.42091 0.42092,0.42091 h 2.04228 c 0.23319,0 0.42092,-0.18772 0.42092,-0.42091 0,-0.2332 -0.18773,-0.42092 -0.42092,-0.42092 z m -46.80319,2.29461 c -0.0279,-0.003 -0.0564,-0.003 -0.0854,3.5e-4 l -4.82902,0.50394 c -0.23194,0.0242 -0.39913,0.2304 -0.37495,0.46233 0.0242,0.23194 0.2304,0.39918 0.46233,0.37496 l 4.82902,-0.50394 c 0.23194,-0.0242 0.39913,-0.2304 0.37495,-0.46234 -0.0212,-0.20294 -0.18177,-0.35634 -0.37695,-0.37531 z m 43.85314,0.0298 c -0.19521,0.0187 -0.35588,0.17186 -0.37732,0.37478 -0.0245,0.2319 0.14233,0.43838 0.37423,0.46288 l 4.82829,0.51048 c 0.23191,0.0245 0.43837,-0.14251 0.46288,-0.37441 0.0245,-0.2319 -0.14251,-0.43838 -0.37441,-0.46288 l -4.8281,-0.51048 c -0.029,-0.003 -0.0577,-0.003 -0.0856,-3.5e-4 z m -46.2602,2.8436 c -0.028,2.4e-4 -0.0565,0.003 -0.085,0.009 l -1.99777,0.42436 c -0.22811,0.0485 -0.37271,0.27111 -0.32427,0.49922 0.0485,0.22811 0.27111,0.37272 0.49922,0.32427 l 1.99777,-0.42419 c 0.2281,-0.0485 0.37271,-0.27111 0.32426,-0.49921 -0.0424,-0.1996 -0.2181,-0.33537 -0.41419,-0.33372 z m 48.66925,0.004 c -0.19609,-0.002 -0.37177,0.13394 -0.41419,0.33353 -0.0485,0.2281 0.096,0.45074 0.32409,0.49922 l 1.99777,0.42455 c 0.22809,0.0485 0.45073,-0.096 0.49921,-0.32409 0.0485,-0.2281 -0.0962,-0.45092 -0.32426,-0.4994 l -1.9976,-0.42455 c -0.0285,-0.006 -0.057,-0.009 -0.085,-0.009 z m -45.30519,1.65787 c -0.0545,-0.005 -0.11077,0.001 -0.16622,0.0194 l -4.61736,1.50091 c -0.22178,0.0721 -0.34223,0.30869 -0.27014,0.53046 0.0721,0.22178 0.30868,0.34222 0.53046,0.27014 l 4.61719,-1.50092 c 0.22178,-0.0721 0.34241,-0.30869 0.27032,-0.53046 -0.0541,-0.16633 -0.20077,-0.2757 -0.36425,-0.28957 z m 41.93713,0.0149 c -0.16349,0.0137 -0.31005,0.12292 -0.36423,0.28921 -0.0722,0.22173 0.048,0.4584 0.26977,0.53065 l 4.61628,1.50418 c 0.22172,0.0722 0.4584,-0.0481 0.53064,-0.26977 0.0723,-0.22172 -0.048,-0.4584 -0.26977,-0.53065 l -4.61628,-1.50418 c -0.0554,-0.0181 -0.11191,-0.024 -0.16641,-0.0194 z m -43.69909,3.27251 c -0.0547,0.001 -0.11006,0.0128 -0.16332,0.0365 l -1.86587,0.83075 c -0.21304,0.0948 -0.30812,0.34267 -0.21328,0.55571 0.0949,0.21304 0.34268,0.30812 0.55571,0.21328 l 1.86589,-0.83058 c 0.21303,-0.0948 0.30811,-0.34267 0.21327,-0.55571 -0.0711,-0.15978 -0.22837,-0.25323 -0.3924,-0.24997 z m 45.45888,0.016 c -0.16403,-0.004 -0.32133,0.0899 -0.39258,0.24961 -0.095,0.21297 -6e-5,0.4609 0.21291,0.55589 l 1.86515,0.83202 c 0.21297,0.095 0.46091,6e-5 0.5559,-0.21291 0.095,-0.21297 6e-5,-0.4609 -0.21291,-0.55589 l -1.86515,-0.83203 c -0.0532,-0.0238 -0.10864,-0.0356 -0.16332,-0.0367 z m -41.82613,0.91214 c -0.0808,-0.006 -0.16424,0.012 -0.23998,0.0558 l -4.20463,2.42758 c -0.20195,0.1166 -0.27065,0.37302 -0.15405,0.57497 0.1166,0.20195 0.37302,0.27065 0.57497,0.15405 l 4.20463,-2.4274 c 0.20195,-0.1166 0.27064,-0.3732 0.15405,-0.57515 -0.0729,-0.12622 -0.2003,-0.20041 -0.33499,-0.20982 z m 38.20028,0 c -0.13469,0.009 -0.26229,0.0836 -0.33517,0.20982 -0.1166,0.20195 -0.0479,0.45855 0.15405,0.57515 l 4.20463,2.4274 c 0.20196,0.1166 0.45855,0.0479 0.57515,-0.15405 0.1166,-0.20195 0.0479,-0.45837 -0.15404,-0.57497 l -4.20482,-2.42758 c -0.0757,-0.0437 -0.15899,-0.0614 -0.2398,-0.0558 z m -39.24903,3.56244 c -0.081,0.003 -0.16211,0.0291 -0.2329,0.0805 l -1.65296,1.19935 c -0.18875,0.13694 -0.2305,0.39912 -0.0936,0.58787 0.13695,0.18875 0.39912,0.2305 0.58787,0.0935 l 1.65314,-1.19935 c 0.18877,-0.13693 0.23051,-0.39911 0.0936,-0.58786 -0.0856,-0.11797 -0.22022,-0.17866 -0.35516,-0.17404 z m 40.28761,0.0142 c -0.13494,-0.005 -0.26948,0.0558 -0.35515,0.17367 -0.13708,0.18865 -0.0955,0.45098 0.0932,0.58805 l 1.65224,1.20044 c 0.18866,0.13707 0.4508,0.0955 0.58787,-0.0932 0.13707,-0.18866 0.0956,-0.4508 -0.093,-0.58787 l -1.65224,-1.20044 c -0.0707,-0.0514 -0.15193,-0.0778 -0.23289,-0.0807 z m -36.54387,0.14533 c -0.10743,-0.006 -0.21702,0.0298 -0.30374,0.10773 l -3.61076,3.2458 c -0.17342,0.15589 -0.18751,0.42098 -0.0316,0.59441 0.15589,0.17342 0.42097,0.1875 0.5944,0.0316 l 3.61077,-3.2458 c 0.17342,-0.15589 0.18751,-0.42098 0.0316,-0.59441 -0.0779,-0.0867 -0.18322,-0.13361 -0.29067,-0.13933 z m 32.80012,0.0116 c -0.10745,0.006 -0.21283,0.0525 -0.29084,0.13915 -0.15603,0.17332 -0.14207,0.43839 0.0312,0.59441 l 3.60841,3.24834 c 0.17332,0.15604 0.43857,0.14208 0.59459,-0.0312 0.15603,-0.17331 0.14207,-0.43839 -0.0312,-0.5944 l -3.6086,-3.24835 c -0.0867,-0.078 -0.19611,-0.11355 -0.30356,-0.10791 z m -29.37464,3.08358 c -0.13493,-0.005 -0.2696,0.0554 -0.35534,0.1733 l -2.85613,3.92614 c -0.13719,0.18858 -0.0959,0.45087 0.0926,0.58805 0.18857,0.13719 0.45087,0.0959 0.58805,-0.0927 l 2.85613,-3.92614 c 0.13718,-0.18857 0.0959,-0.45086 -0.0926,-0.58805 -0.0707,-0.0514 -0.15175,-0.0778 -0.23271,-0.0806 z m 25.93573,0.0176 c -0.081,0.003 -0.16211,0.0289 -0.2329,0.0803 -0.18875,0.13694 -0.23048,0.39911 -0.0936,0.58787 l 2.85086,3.92995 c 0.13693,0.18876 0.39911,0.2305 0.58787,0.0936 0.18876,-0.13693 0.23049,-0.3991 0.0936,-0.58786 l -2.85086,-3.92996 c -0.0856,-0.11797 -0.22004,-0.17846 -0.35498,-0.17385 z m -29.6228,0.6064 c -0.10745,0.006 -0.21282,0.0525 -0.29084,0.13915 l -1.36649,1.51763 c -0.15605,0.1733 -0.14223,0.43855 0.0311,0.59459 0.1733,0.15604 0.43837,0.14205 0.5944,-0.0313 l 1.36666,-1.51762 c 0.15606,-0.1733 0.14206,-0.43856 -0.0312,-0.59459 -0.0867,-0.078 -0.19611,-0.11354 -0.30357,-0.10791 z m 33.33076,0.002 c -0.10745,-0.006 -0.21691,0.0299 -0.30356,0.10791 -0.17333,0.156 -0.18726,0.42108 -0.0313,0.5944 l 1.3663,1.51799 c 0.15602,0.17333 0.42109,0.18726 0.59442,0.0312 0.17332,-0.15601 0.18726,-0.42126 0.0312,-0.59459 l -1.36631,-1.5178 c -0.078,-0.0867 -0.18339,-0.13351 -0.29084,-0.13916 z m -25.65524,1.68366 c -0.16403,-0.004 -0.32114,0.0899 -0.39239,0.24961 l -1.97816,4.43389 c -0.095,0.21297 -5e-5,0.46089 0.21292,0.5559 0.21296,0.095 0.46089,5e-5 0.55589,-0.21291 l 1.97815,-4.4339 c 0.095,-0.21296 5e-5,-0.46089 -0.21292,-0.55589 -0.0532,-0.0238 -0.10881,-0.0356 -0.16349,-0.0367 z m 17.95556,0.0122 c -0.0547,0.001 -0.11023,0.0128 -0.1635,0.0365 -0.21297,0.0947 -0.30836,0.34244 -0.21363,0.55553 l 1.97196,4.43662 c 0.0947,0.21297 0.34262,0.30836 0.55571,0.21364 0.21298,-0.0947 0.30836,-0.34244 0.21364,-0.55553 l -1.97197,-4.43662 c -0.071,-0.15973 -0.22818,-0.25329 -0.39221,-0.25015 z m -21.43154,1.35867 c -0.13468,0.009 -0.26212,0.0836 -0.33498,0.20982 l -1.02115,1.76869 c -0.11659,0.20195 -0.0479,0.45837 0.15406,0.57497 0.20195,0.1166 0.45837,0.0479 0.57496,-0.15405 l 1.02115,-1.76869 c 0.11659,-0.20195 0.0479,-0.45837 -0.15406,-0.57497 -0.0757,-0.0437 -0.15916,-0.0614 -0.23998,-0.0558 z m 24.93421,0 c -0.0808,-0.006 -0.16406,0.0121 -0.23979,0.0558 -0.20195,0.1166 -0.27065,0.37302 -0.15405,0.57497 l 1.02114,1.76869 c 0.1166,0.20195 0.37302,0.27064 0.57496,0.15405 0.20196,-0.1166 0.27066,-0.37302 0.15406,-0.57497 l -1.02114,-1.76869 c -0.0729,-0.12622 -0.20049,-0.20041 -0.33518,-0.20982 z m -17.0545,0.0634 c -0.19609,-0.002 -0.3718,0.13394 -0.41419,0.33354 l -1.00897,4.74926 c -0.0485,0.2281 0.0962,0.45076 0.32427,0.49921 0.22811,0.0485 0.45076,-0.0962 0.49922,-0.32427 l 1.00896,-4.74926 c 0.0485,-0.2281 -0.0962,-0.45076 -0.32427,-0.49921 -0.0285,-0.006 -0.057,-0.009 -0.085,-0.009 z m 9.1599,0.003 c -0.028,2.2e-4 -0.0563,0.003 -0.0848,0.009 -0.22814,0.0483 -0.37294,0.27071 -0.32465,0.49885 l 1.00553,4.74999 c 0.0483,0.22814 0.27088,0.37293 0.49903,0.32464 0.22814,-0.0483 0.37293,-0.27089 0.32464,-0.49903 l -1.0057,-4.74965 c -0.0423,-0.19963 -0.21793,-0.33543 -0.41402,-0.33391 z m -4.5725,0.47905 c -0.23319,0 -0.42092,0.18772 -0.42092,0.42092 v 4.85517 c 0,0.2332 0.18773,0.42092 0.42092,0.42092 0.2332,0 0.42092,-0.18772 0.42092,-0.42092 v -4.85517 c 0,-0.2332 -0.18772,-0.42092 -0.42092,-0.42092 z m -7.72657,1.56886 c -0.16347,0.0139 -0.31017,0.12324 -0.36423,0.28957 l -0.63129,1.94236 c -0.0721,0.22178 0.0484,0.45837 0.27014,0.53047 0.22177,0.0721 0.45836,-0.0486 0.53046,-0.27032 l 0.63128,-1.94218 c 0.0721,-0.22177 -0.0484,-0.45836 -0.27013,-0.53046 -0.0554,-0.018 -0.11173,-0.024 -0.16623,-0.0194 z m 15.44987,0.001 c -0.0545,-0.005 -0.11078,0.001 -0.16622,0.0193 -0.22178,0.0721 -0.34238,0.30868 -0.27033,0.53047 l 0.63111,1.94235 c 0.0721,0.22179 0.30868,0.3422 0.53046,0.27014 0.22178,-0.0721 0.34238,-0.3085 0.27032,-0.53028 l -0.63128,-1.94236 c -0.0541,-0.16634 -0.20058,-0.27568 -0.36406,-0.28957 z m -10.36543,1.08181 c -0.1952,0.0188 -0.356,0.17203 -0.37732,0.37496 l -0.21346,2.03119 c -0.0244,0.23192 0.14268,0.43812 0.3746,0.46252 0.23192,0.0244 0.4383,-0.14268 0.4627,-0.3746 l 0.21345,-2.03101 c 0.0244,-0.23192 -0.14268,-0.4383 -0.37458,-0.4627 -0.029,-0.003 -0.0575,-0.003 -0.0854,-3.5e-4 z m 5.26736,0.002 c -0.0279,-0.003 -0.0566,-0.003 -0.0856,3.5e-4 -0.23193,0.0242 -0.39917,0.2304 -0.37495,0.46233 l 0.21218,2.03138 c 0.0242,0.23193 0.2304,0.399 0.46234,0.37478 0.23193,-0.0242 0.39918,-0.23041 0.37496,-0.46234 l -0.212,-2.03119 c -0.0212,-0.20295 -0.18178,-0.35637 -0.37697,-0.37533 z" style="opacity:1;fill:#f4f2f3;fill-opacity:1;stroke:none;stroke-width:.38088897;stroke-linecap:round;stroke-linejoin:round;stroke-miterlimit:4;stroke-dasharray:none;stroke-dashoffset:0;stroke-opacity:1;paint-order:markers stroke fill"/><path id="path2150" d="m 469.09621,100.6068 -65.50955,38.06124 -41.41979,65.20654 60.59382,-44.88117 z" transform="matrix(0.35154274,0,0,0.35154274,206.79018,159.77261)" style="opacity:.40900005;fill:#000;fill-opacity:1;stroke:none;stroke-width:1.5614785;stroke-linecap:round;stroke-linejoin:round;stroke-miterlimit:4;stroke-dasharray:none;stroke-dashoffset:0;stroke-opacity:1;paint-order:markers stroke fill;filter:url(#filter2222)"/><g id="g2847"><path style="opacity:1;fill:#ff5150;fill-opacity:1;stroke:none;stroke-width:1.01970422;stroke-linecap:round;stroke-linejoin:round;stroke-miterlimit:4;stroke-dasharray:none;stroke-dashoffset:0;stroke-opacity:1;paint-order:markers stroke fill" id="path2096" d="m 129.8387,160.80256 -23.01419,-23.01419 31.43796,-8.42378 z" transform="matrix(0.64804473,-0.3316906,-0.36122382,0.63205852,329.21345,156.86272)"/><path id="path2099" d="m 129.8387,160.80256 -23.01419,-23.01419 31.43796,-8.42378 z" transform="matrix(-0.36122382,0.63205852,0.64804473,-0.3316906,297.96259,186.70411)" style="opacity:1;fill:#f1f1f1;fill-opacity:1;stroke:none;stroke-width:1.01970422;stroke-linecap:round;stroke-linejoin:round;stroke-miterlimit:4;stroke-dasharray:none;stroke-dashoffset:0;stroke-opacity:1;paint-order:markers stroke fill"/><path style="opacity:.24299999;fill:#000;stroke:none;stroke-width:.09301235px;stroke-linecap:butt;stroke-linejoin:miter;stroke-opacity:1" id="path2112" d="m 331.85294,231.18507 23.41607,-15.75201 16.81513,-22.66472 z"/></g></g></g><g id="layer1-3" transform="matrix(0.28464711,0,0,0.28464711,220.54941,-75.245228)"><path style="fill:#1ebbee" id="svg" d="m 533.03,388.73 c 0,-16.968 -4.387,-32.909 -12.08,-46.761 32.791,-74.213 -35.136,-63.343 -38.918,-62.603 -14.391,2.816 -27.705,7.337 -39.986,13.068 -1.811,-0.102 -3.633,-0.158 -5.469,-0.158 -45.833,0 -84.198,31.968 -94.017,74.823 24.157,-27.101 41.063,-38.036 51.187,-42.412 -1.616,1.444 -3.198,2.904 -4.754,4.375 -0.518,0.489 -1.017,0.985 -1.528,1.477 -1.026,0.987 -2.05,1.975 -3.05,2.972 -0.595,0.593 -1.174,1.191 -1.76,1.788 -0.887,0.903 -1.772,1.805 -2.638,2.713 -0.615,0.645 -1.215,1.292 -1.819,1.938 -0.809,0.866 -1.613,1.733 -2.402,2.603 -0.613,0.676 -1.216,1.352 -1.818,2.03 -0.748,0.842 -1.489,1.684 -2.22,2.528 -0.606,0.7 -1.207,1.4 -1.801,2.101 -0.693,0.818 -1.377,1.636 -2.054,2.454 -0.599,0.724 -1.196,1.447 -1.782,2.17 -0.634,0.782 -1.254,1.563 -1.873,2.343 -0.6,0.756 -1.2,1.511 -1.786,2.266 -0.558,0.719 -1.1,1.435 -1.646,2.152 -0.616,0.81 -1.237,1.62 -1.837,2.426 -0.429,0.577 -0.841,1.148 -1.262,1.723 -3.811,5.2 -7.293,10.3 -10.438,15.199 -0.008,0.012 -0.016,0.024 -0.023,0.036 -0.828,1.29 -1.627,2.561 -2.41,3.821 -0.042,0.068 -0.086,0.137 -0.128,0.206 -0.784,1.265 -1.541,2.508 -2.279,3.738 -0.026,0.043 -0.053,0.087 -0.079,0.13 -1.984,3.311 -3.824,6.503 -5.481,9.506 -8.687,15.743 -12.916,26.742 -13.099,27.395 -27.432,98.072 58.184,56.657 70.131,50.475 12.864,6.355 27.346,9.932 42.666,9.932 41.94,0 77.623,-26.771 90.905,-64.156 h -50.68 c -7.499,12.669 -21.936,21.25 -38.522,21.25 -24.301,0 -44,-18.412 -44,-41.125 h 137.96 c 0.523,-4.068 0.794,-8.214 0.794,-12.423 z m -18.018,-94.916 c 8.306,5.606 14.968,14.41 3.527,44.059 -10.973,-17.647 -27.482,-31.49 -47.104,-39.099 8.926,-4.311 31.031,-13.429 43.577,-4.96 z m -176.52,181.24 c -6.765,-6.938 -7.961,-23.836 6.967,-54.628 7.534,21.661 22.568,39.811 42,51.33 -9.664,5.319 -35.32,17.295 -48.967,3.298 z m 55.571,-100.28 c 0.771,-22.075 19.983,-39.75 43.588,-39.75 23.604,0 42.817,17.675 43.588,39.75 z"/></g><g id="g4794" transform="matrix(0.23434854,0,0,0.23434854,80.891389,4.0000007)"><path id="path4745" d="m 235.68,195.46 a 93.73,93.73 0 0 1 -10.54,4.71 101.87,101.87 0 0 1 -35.9,6.46 c -47.32,0 -88.54,-32.55 -88.54,-74.32 A 31.48,31.48 0 0 1 117.13,105 c -42.8,1.8 -53.8,46.4 -53.8,72.53 0,73.88 68.09,81.37 82.76,81.37 7.91,0 19.84,-2.3 27,-4.56 l 1.31,-0.44 a 128.34,128.34 0 0 0 66.6,-52.8 4,4 0 0 0 -5.32,-5.64 z" class="cls-1" transform="translate(-4.63,-4.92)" style="fill:url(#linear-gradient-51)"/><path id="path4747" d="m 235.68,195.46 a 93.73,93.73 0 0 1 -10.54,4.71 101.87,101.87 0 0 1 -35.9,6.46 c -47.32,0 -88.54,-32.55 -88.54,-74.32 A 31.48,31.48 0 0 1 117.13,105 c -42.8,1.8 -53.8,46.4 -53.8,72.53 0,73.88 68.09,81.37 82.76,81.37 7.91,0 19.84,-2.3 27,-4.56 l 1.31,-0.44 a 128.34,128.34 0 0 0 66.6,-52.8 4,4 0 0 0 -5.32,-5.64 z" class="cls-2" transform="translate(-4.63,-4.92)" style="opacity:.35;isolation:isolate;fill:url(#radial-gradient-9)"/><path id="path4749" d="M 110.34,246.34 A 79.2,79.2 0 0 1 87.6,225 80.72,80.72 0 0 1 117.13,105 c 3.12,-1.47 8.45,-4.13 15.54,-4 a 32.35,32.35 0 0 1 25.69,13 31.88,31.88 0 0 1 6.36,18.66 c 0,-0.21 24.46,-79.6 -80,-79.6 -43.9,0 -80,41.66 -80,78.21 a 130.15,130.15 0 0 0 12.11,56 128,128 0 0 0 156.38,67.11 75.55,75.55 0 0 1 -62.78,-8 z" class="cls-3" transform="translate(-4.63,-4.92)" style="fill:url(#linear-gradient-2-6)"/><path id="path4751" d="M 110.34,246.34 A 79.2,79.2 0 0 1 87.6,225 80.72,80.72 0 0 1 117.13,105 c 3.12,-1.47 8.45,-4.13 15.54,-4 a 32.35,32.35 0 0 1 25.69,13 31.88,31.88 0 0 1 6.36,18.66 c 0,-0.21 24.46,-79.6 -80,-79.6 -43.9,0 -80,41.66 -80,78.21 a 130.15,130.15 0 0 0 12.11,56 128,128 0 0 0 156.38,67.11 75.55,75.55 0 0 1 -62.78,-8 z" class="cls-4" transform="translate(-4.63,-4.92)" style="opacity:.41000001;isolation:isolate;fill:url(#radial-gradient-2-1)"/><path id="path4753" d="m 156.94,153.78 c -0.81,1.05 -3.3,2.5 -3.3,5.66 0,2.61 1.7,5.12 4.72,7.23 14.38,10 41.49,8.68 41.56,8.68 a 59.56,59.56 0 0 0 30.27,-8.35 61.38,61.38 0 0 0 30.43,-52.88 c 0.26,-22.41 -8,-37.31 -11.34,-43.91 C 228.09,28.76 182.35,4.92 132.61,4.92 a 128,128 0 0 0 -128,126.2 c 0.48,-36.54 36.8,-66.05 80,-66.05 3.5,0 23.46,0.34 42,10.07 16.34,8.58 24.9,18.94 30.85,29.21 6.18,10.67 7.28,24.15 7.28,29.52 0,5.37 -2.74,13.33 -7.8,19.91 z" class="cls-5" transform="translate(-4.63,-4.92)" style="fill:url(#radial-gradient-3-3)"/><path id="path4755" d="m 156.94,153.78 c -0.81,1.05 -3.3,2.5 -3.3,5.66 0,2.61 1.7,5.12 4.72,7.23 14.38,10 41.49,8.68 41.56,8.68 a 59.56,59.56 0 0 0 30.27,-8.35 61.38,61.38 0 0 0 30.43,-52.88 c 0.26,-22.41 -8,-37.31 -11.34,-43.91 C 228.09,28.76 182.35,4.92 132.61,4.92 a 128,128 0 0 0 -128,126.2 c 0.48,-36.54 36.8,-66.05 80,-66.05 3.5,0 23.46,0.34 42,10.07 16.34,8.58 24.9,18.94 30.85,29.21 6.18,10.67 7.28,24.15 7.28,29.52 0,5.37 -2.74,13.33 -7.8,19.91 z" class="cls-6" transform="translate(-4.63,-4.92)" style="fill:url(#radial-gradient-4-3)"/></g><g id="g5076" transform="matrix(0.75030971,0,0,0.75030971,1.1423578,4.0000002)"><path style="fill:url(#a-3)" id="path980" d="m 79.616,26.826915 c -1.684,-4.052 -5.1,-8.427 -7.775,-9.81 a 40.266,40.266 0 0 1 3.925,11.764 l 0.007,0.065 c -4.382,-10.925 -11.813,-15.33 -17.882,-24.9220005 -0.307,-0.485 -0.614,-0.971 -0.913,-1.484 -0.171,-0.293 -0.308,-0.557 -0.427,-0.8 a 7.053,7.053 0 0 1 -0.578,-1.535 0.1,0.1 0 0 0 -0.088,-0.1 0.138,0.138 0 0 0 -0.073,0 c -0.005,0 -0.013,0.009 -0.019,0.011 -0.006,0.002 -0.019,0.011 -0.028,0.015 l 0.015,-0.026 c -9.735,5.7 -13.038,16.2520005 -13.342,21.5300005 a 19.387,19.387 0 0 0 -10.666,4.111 11.587,11.587 0 0 0 -1,-0.758 17.968,17.968 0 0 1 -0.109,-9.473 28.705,28.705 0 0 0 -9.329,7.21 h -0.018 c -1.536,-1.947 -1.428,-8.367 -1.34,-9.708 a 6.928,6.928 0 0 0 -1.294,0.687 28.225,28.225 0 0 0 -3.788,3.245 33.845,33.845 0 0 0 -3.623,4.347 v 0.006 -0.007 a 32.733,32.733 0 0 0 -5.2,11.743 l -0.052,0.256 c -0.073,0.341 -0.336,2.049 -0.381,2.42 0,0.029 -0.006,0.056 -0.009,0.085 A 36.937,36.937 0 0 0 5,41.041915 v 0.2 a 38.759,38.759 0 0 0 76.954,6.554 c 0.065,-0.5 0.118,-0.995 0.176,-1.5 a 39.857,39.857 0 0 0 -2.514,-19.469 z m -44.67,30.338 c 0.181,0.087 0.351,0.181 0.537,0.264 l 0.027,0.017 q -0.282,-0.135 -0.564,-0.281 z m 8.878,-23.376 z m 31.952,-4.934 v -0.037 l 0.007,0.041 z"/><path style="fill:url(#b-1)" id="path982" d="m 79.616,26.826915 c -1.684,-4.052 -5.1,-8.427 -7.775,-9.81 a 40.266,40.266 0 0 1 3.925,11.764 v 0.037 l 0.007,0.041 a 35.1,35.1 0 0 1 -1.206,26.158 c -4.442,9.531 -15.194,19.3 -32.024,18.825 -18.185,-0.515 -34.2,-14.009 -37.194,-31.683 -0.545,-2.787 0,-4.2 0.274,-6.465 A 28.876,28.876 0 0 0 5,41.041915 v 0.2 a 38.759,38.759 0 0 0 76.954,6.554 c 0.065,-0.5 0.118,-0.995 0.176,-1.5 a 39.857,39.857 0 0 0 -2.514,-19.469 z"/><path style="fill:url(#c-4)" id="path984" d="m 79.616,26.826915 c -1.684,-4.052 -5.1,-8.427 -7.775,-9.81 a 40.266,40.266 0 0 1 3.925,11.764 v 0.037 l 0.007,0.041 a 35.1,35.1 0 0 1 -1.206,26.158 c -4.442,9.531 -15.194,19.3 -32.024,18.825 -18.185,-0.515 -34.2,-14.009 -37.194,-31.683 -0.545,-2.787 0,-4.2 0.274,-6.465 A 28.876,28.876 0 0 0 5,41.041915 v 0.2 a 38.759,38.759 0 0 0 76.954,6.554 c 0.065,-0.5 0.118,-0.995 0.176,-1.5 a 39.857,39.857 0 0 0 -2.514,-19.469 z"/><path style="fill:url(#d-8)" id="path986" d="m 60.782,31.382915 c 0.084,0.059 0.162,0.118 0.241,0.177 a 21.1,21.1 0 0 0 -3.6,-4.695 C 45.377,14.816915 54.266,0.7419145 55.765,0.0269145 l 0.015,-0.022 c -9.735,5.7 -13.038,16.2520005 -13.342,21.5300005 0.452,-0.031 0.9,-0.069 1.362,-0.069 a 19.56,19.56 0 0 1 16.982,9.917 z"/><path style="fill:url(#e-0)" id="path988" d="m 43.825,33.788915 c -0.064,0.964 -3.47,4.289 -4.661,4.289 -11.021,0 -12.81,6.667 -12.81,6.667 0.488,5.614 4.4,10.238 9.129,12.684 0.216,0.112 0.435,0.213 0.654,0.312 q 0.569,0.252 1.138,0.466 a 17.235,17.235 0 0 0 5.043,0.973 c 19.317,0.906 23.059,-23.1 9.119,-30.066 a 13.38,13.38 0 0 1 9.345,2.269 19.56,19.56 0 0 0 -16.982,-9.917 c -0.46,0 -0.91,0.038 -1.362,0.069 a 19.387,19.387 0 0 0 -10.666,4.111 c 0.591,0.5 1.258,1.168 2.663,2.553 2.63,2.591 9.375,5.275 9.39,5.59 z"/><path style="fill:url(#f-8)" id="path990" d="m 43.825,33.788915 c -0.064,0.964 -3.47,4.289 -4.661,4.289 -11.021,0 -12.81,6.667 -12.81,6.667 0.488,5.614 4.4,10.238 9.129,12.684 0.216,0.112 0.435,0.213 0.654,0.312 q 0.569,0.252 1.138,0.466 a 17.235,17.235 0 0 0 5.043,0.973 c 19.317,0.906 23.059,-23.1 9.119,-30.066 a 13.38,13.38 0 0 1 9.345,2.269 19.56,19.56 0 0 0 -16.982,-9.917 c -0.46,0 -0.91,0.038 -1.362,0.069 a 19.387,19.387 0 0 0 -10.666,4.111 c 0.591,0.5 1.258,1.168 2.663,2.553 2.63,2.591 9.375,5.275 9.39,5.59 z"/><path style="fill:url(#g-6)" id="path992" d="m 29.965,24.356915 c 0.314,0.2 0.573,0.374 0.8,0.531 a 17.968,17.968 0 0 1 -0.109,-9.473 28.705,28.705 0 0 0 -9.329,7.21 c 0.189,-0.005 5.811,-0.106 8.638,1.732 z"/><path style="fill:url(#h)" id="path994" d="m 5.354,42.158915 c 2.991,17.674 19.009,31.168 37.194,31.683 16.83,0.476 27.582,-9.294 32.024,-18.825 a 35.1,35.1 0 0 0 1.206,-26.158 v -0.037 c 0,-0.029 -0.006,-0.046 0,-0.037 l 0.007,0.065 c 1.375,8.977 -3.191,17.674 -10.329,23.555 l -0.022,0.05 c -13.908,11.327 -27.218,6.834 -29.912,5 q -0.282,-0.135 -0.564,-0.281 c -8.109,-3.876 -11.459,-11.264 -10.741,-17.6 a 9.953,9.953 0 0 1 -9.181,-5.775 14.618,14.618 0 0 1 14.249,-0.572 19.3,19.3 0 0 0 14.552,0.572 c -0.015,-0.315 -6.76,-3 -9.39,-5.59 -1.405,-1.385 -2.072,-2.052 -2.663,-2.553 a 11.587,11.587 0 0 0 -1,-0.758 c -0.23,-0.157 -0.489,-0.327 -0.8,-0.531 -2.827,-1.838 -8.449,-1.737 -8.635,-1.732 h -0.018 c -1.536,-1.947 -1.428,-8.367 -1.34,-9.708 a 6.928,6.928 0 0 0 -1.294,0.687 28.225,28.225 0 0 0 -3.788,3.245 33.845,33.845 0 0 0 -3.638,4.337 v 0.006 -0.007 a 32.733,32.733 0 0 0 -5.2,11.743 c -0.019,0.079 -1.396,6.099 -0.717,9.221 z"/><path style="fill:url(#i-7)" id="path996" d="m 57.425,26.864915 a 21.1,21.1 0 0 1 3.6,4.7 c 0.213,0.161 0.412,0.321 0.581,0.476 8.787,8.1 4.183,19.55 3.84,20.365 7.138,-5.881 11.7,-14.578 10.329,-23.555 -4.384,-10.93 -11.815,-15.335 -17.884,-24.9270005 -0.307,-0.485 -0.614,-0.971 -0.913,-1.484 -0.171,-0.293 -0.308,-0.557 -0.427,-0.8 a 7.053,7.053 0 0 1 -0.578,-1.535 0.1,0.1 0 0 0 -0.088,-0.1 0.138,0.138 0 0 0 -0.073,0 c -0.005,0 -0.013,0.009 -0.019,0.011 -0.006,0.002 -0.019,0.011 -0.028,0.015 -1.499,0.711 -10.388,14.7860005 1.66,26.8340005 z"/><path style="fill:url(#j-3)" id="path998" d="m 61.6,32.035915 c -0.169,-0.155 -0.368,-0.315 -0.581,-0.476 -0.079,-0.059 -0.157,-0.118 -0.241,-0.177 a 13.38,13.38 0 0 0 -9.345,-2.269 c 13.94,6.97 10.2,30.972 -9.119,30.066 a 17.235,17.235 0 0 1 -5.043,-0.973 q -0.569,-0.213 -1.138,-0.466 c -0.219,-0.1 -0.438,-0.2 -0.654,-0.312 l 0.027,0.017 c 2.694,1.839 16,6.332 29.912,-5 l 0.022,-0.05 c 0.347,-0.81 4.951,-12.263 -3.84,-20.36 z"/><path style="fill:url(#k)" id="path1000" d="m 26.354,44.744915 c 0,0 1.789,-6.667 12.81,-6.667 1.191,0 4.6,-3.325 4.661,-4.289 a 19.3,19.3 0 0 1 -14.552,-0.572 14.618,14.618 0 0 0 -14.249,0.572 9.953,9.953 0 0 0 9.181,5.775 c -0.718,6.337 2.632,13.725 10.741,17.6 0.181,0.087 0.351,0.181 0.537,0.264 -4.733,-2.445 -8.641,-7.069 -9.129,-12.683 z"/><path style="fill:url(#l-3)" id="path1002" d="m 79.616,26.826915 c -1.684,-4.052 -5.1,-8.427 -7.775,-9.81 a 40.266,40.266 0 0 1 3.925,11.764 l 0.007,0.065 c -4.382,-10.925 -11.813,-15.33 -17.882,-24.9220005 -0.307,-0.485 -0.614,-0.971 -0.913,-1.484 -0.171,-0.293 -0.308,-0.557 -0.427,-0.8 a 7.053,7.053 0 0 1 -0.578,-1.535 0.1,0.1 0 0 0 -0.088,-0.1 0.138,0.138 0 0 0 -0.073,0 c -0.005,0 -0.013,0.009 -0.019,0.011 -0.006,0.002 -0.019,0.011 -0.028,0.015 l 0.015,-0.026 c -9.735,5.7 -13.038,16.2520005 -13.342,21.5300005 0.452,-0.031 0.9,-0.069 1.362,-0.069 a 19.56,19.56 0 0 1 16.982,9.917 13.38,13.38 0 0 0 -9.345,-2.269 c 13.94,6.97 10.2,30.972 -9.119,30.066 a 17.235,17.235 0 0 1 -5.043,-0.973 q -0.569,-0.213 -1.138,-0.466 c -0.219,-0.1 -0.438,-0.2 -0.654,-0.312 l 0.027,0.017 q -0.282,-0.135 -0.564,-0.281 c 0.181,0.087 0.351,0.181 0.537,0.264 -4.733,-2.446 -8.641,-7.07 -9.129,-12.684 0,0 1.789,-6.667 12.81,-6.667 1.191,0 4.6,-3.325 4.661,-4.289 -0.015,-0.315 -6.76,-3 -9.39,-5.59 -1.405,-1.385 -2.072,-2.052 -2.663,-2.553 a 11.587,11.587 0 0 0 -1,-0.758 17.968,17.968 0 0 1 -0.109,-9.473 28.705,28.705 0 0 0 -9.329,7.21 h -0.018 c -1.536,-1.947 -1.428,-8.367 -1.34,-9.708 a 6.928,6.928 0 0 0 -1.294,0.687 28.225,28.225 0 0 0 -3.788,3.245 33.845,33.845 0 0 0 -3.623,4.347 v 0.006 -0.007 a 32.733,32.733 0 0 0 -5.2,11.743 l -0.052,0.256 c -0.073,0.341 -0.4,2.073 -0.447,2.445 0,0.028 0,-0.029 0,0 A 45.094,45.094 0 0 0 5,41.041915 v 0.2 a 38.759,38.759 0 0 0 76.954,6.554 c 0.065,-0.5 0.118,-0.995 0.176,-1.5 a 39.857,39.857 0 0 0 -2.514,-19.469 z m -3.845,1.991 0.007,0.041 z"/></g></svg>